<?xml version="1.0" encoding="utf-8"?>
<!-- Generator: Adobe Illustrator 19.0.0, SVG Export Plug-In . SVG Version: 6.00 Build 0)  -->
<svg version="1.1" id="add_1_" xmlns="http://www.w3.org/2000/svg" xmlns:xlink="http://www.w3.org/1999/xlink" x="0px" y="0px"
	 viewBox="15.167 -16.333 1000.636 1000.678" style="enable-background:new 15.167 -16.333 1000.636 1000.678;"
	 xml:space="preserve">
<path id="add" d="M417.478,671.426L247.479,774.329c-15.475,7.212-29.399-7.719-22.183-22.206l102.911-170.06L417.478,671.426
	L417.478,671.426z M664.128,242.316l93.096,91.952L461.381,630.597c-34.638-34.726-82.62-82.784-92.438-92.611L664.128,242.316
	L664.128,242.316z M759.792,152.427c9.639-9.576,25.265-9.576,34.929,0l52.344,51.893c9.639,9.576,9.639,25.06,0,34.612
	l-52.344,51.918l-86.032-87.786L759.792,152.427L759.792,152.427z M292.042,551.957l-114.85,232.062
	c-9.642,26.152,11.298,49.558,37.473,37.429L447.01,706.736c10.016-1.946,19.738-5.838,27.484-13.569l412.792-412.3
	c20.726-20.66,20.726-54.25,0-74.937l-93.803-93.704c-20.753-20.687-54.327-20.687-75.053,0L305.637,524.498
	C297.865,532.256,294.019,541.96,292.042,551.957L292.042,551.957z M902.83,824.738c0,24.268-24.268,48.535-48.535,48.535H174.802
	c-24.268,0-48.535-24.268-48.535-48.535V145.245c0-24.268,24.268-48.535,48.535-48.535h436.864l-0.047-48.535H186.936
	c-59.899,0-109.204,53.756-109.204,113.709v651.348c0,59.98,48.569,108.576,108.494,108.576h650.939
	c59.926,0,114.2-49.251,114.2-109.204V387.921H902.83V824.738z"/>
</svg>
